<svg xmlns:dc="http://purl.org/dc/elements/1.1/" xmlns:cc="http://creativecommons.org/ns#" xmlns:rdf="http://www.w3.org/1999/02/22-rdf-syntax-ns#" xmlns:svg="http://www.w3.org/2000/svg" xmlns="http://www.w3.org/2000/svg" xmlns:sodipodi="http://sodipodi.sourceforge.net/DTD/sodipodi-0.dtd" xmlns:inkscape="http://www.inkscape.org/namespaces/inkscape" viewBox="0 0 16.933333 21.1666675" version="1.1" x="0px" y="0px"><g transform="translate(0,-280.06665)"><path style="color:#000000;font-style:normal;font-variant:normal;font-weight:normal;font-stretch:normal;font-size:medium;line-height:normal;font-family:sans-serif;font-variant-ligatures:normal;font-variant-position:normal;font-variant-caps:normal;font-variant-numeric:normal;font-variant-alternates:normal;font-feature-settings:normal;text-indent:0;text-align:start;text-decoration:none;text-decoration-line:none;text-decoration-style:solid;text-decoration-color:#000000;letter-spacing:normal;word-spacing:normal;text-transform:none;writing-mode:lr-tb;direction:ltr;text-orientation:mixed;dominant-baseline:auto;baseline-shift:baseline;text-anchor:start;white-space:normal;shape-padding:0;clip-rule:nonzero;display:inline;overflow:visible;visibility:visible;opacity:1;isolation:auto;mix-blend-mode:normal;color-interpolation:sRGB;color-interpolation-filters:linearRGB;solid-color:#000000;solid-opacity:1;vector-effect:none;fill:#000000;fill-opacity:1;fill-rule:nonzero;stroke:none;stroke-width:0.52900004;stroke-linecap:round;stroke-linejoin:round;stroke-miterlimit:4;stroke-dasharray:none;stroke-dashoffset:0;stroke-opacity:1;paint-order:normal;color-rendering:auto;image-rendering:auto;shape-rendering:auto;text-rendering:auto;enable-background:accumulate" d="m 9.54493,281.12498 a 0.26451098,0.26453254 0 0 0 -0.18552,0.078 l -6.64817,6.64663 a 0.26451098,0.26453254 0 0 0 0,0.37516 l 3.92844,3.92844 c 1.26349,-1.26304 2.58044,-2.57945 3.95997,-3.95841 0.14485,-0.14567 0.34472,-0.23209 0.55293,-0.23409 0.21346,-0.002 0.41575,0.081 0.56793,0.23254 a 0.52921962,0.52921962 0 0 1 0.002,0 l 0.18655,0.18655 2.31304,-2.31355 a 0.26451098,0.26453254 0 0 0 0.078,-0.18758 v -4.49017 a 0.26451098,0.26453254 0 0 0 -0.26562,-0.26355 z m 1.84847,1.84847 c 0.26959,-3.6e-4 0.53905,0.10287 0.74672,0.31057 v -0.002 c 0.4153,0.41542 0.4153,1.08061 0,1.49603 -0.41533,0.41626 -1.07812,0.41439 -1.49345,-0.001 -0.41531,-0.41542 -0.41531,-1.077 0,-1.49242 0.20767,-0.20728 0.47713,-0.31125 0.74673,-0.3116 z"/><path style="color:#000000;font-style:normal;font-variant:normal;font-weight:normal;font-stretch:normal;font-size:medium;line-height:normal;font-family:sans-serif;font-variant-ligatures:normal;font-variant-position:normal;font-variant-caps:normal;font-variant-numeric:normal;font-variant-alternates:normal;font-feature-settings:normal;text-indent:0;text-align:start;text-decoration:none;text-decoration-line:none;text-decoration-style:solid;text-decoration-color:#000000;letter-spacing:normal;word-spacing:normal;text-transform:none;writing-mode:lr-tb;direction:ltr;text-orientation:mixed;dominant-baseline:auto;baseline-shift:baseline;text-anchor:start;white-space:normal;shape-padding:0;clip-rule:nonzero;display:inline;overflow:visible;visibility:visible;opacity:1;isolation:auto;mix-blend-mode:normal;color-interpolation:sRGB;color-interpolation-filters:linearRGB;solid-color:#000000;solid-opacity:1;vector-effect:none;fill:#000000;fill-opacity:1;fill-rule:nonzero;stroke:none;stroke-width:0.52899998;stroke-linecap:round;stroke-linejoin:round;stroke-miterlimit:4;stroke-dasharray:none;stroke-dashoffset:0;stroke-opacity:1;paint-order:normal;color-rendering:auto;image-rendering:auto;shape-rendering:auto;text-rendering:auto;enable-background:accumulate" d="m 11.15817,288.4899 c -0.0701,8e-4 -0.13596,0.0292 -0.18448,0.078 -0.32564,0.32551 -0.60931,0.60894 -0.93483,0.9343 l 2.24534,2.24534 c 0.31143,-0.31142 0.62287,-0.62291 0.93431,-0.9343 0.10359,-0.10303 0.10356,-0.27056 5.2e-4,-0.37415 l -1.87121,-1.87171 c -0.0507,-0.0505 -0.11957,-0.0783 -0.18965,-0.0775 z m -1.49344,1.38649 c -1.2992,1.29857 -2.62809,2.62684 -3.74396,3.7424 -0.0492,0.05 -0.0765,0.11747 -0.076,0.18759 v 1.87121 c 2.7e-4,0.1455 0.11802,0.2635 0.26355,0.26406 h 1.87121 c 0.0702,3.9e-4 0.13768,-0.0271 0.18758,-0.0765 1.24745,-1.24788 2.49529,-2.49573 3.74292,-3.74343 z"/></g><text x="0" y="31.933334" fill="#000000" font-size="5px" font-weight="bold" font-family="'Helvetica Neue', Helvetica, Arial-Unicode, Arial, Sans-serif">Created by Ranah Pixel Studio</text><text x="0" y="36.933334" fill="#000000" font-size="5px" font-weight="bold" font-family="'Helvetica Neue', Helvetica, Arial-Unicode, Arial, Sans-serif">from the Noun Project</text></svg>