<?xml version="1.0" standalone="no"?>
<!DOCTYPE svg PUBLIC "-//W3C//DTD SVG 20010904//EN"
 "http://www.w3.org/TR/2001/REC-SVG-20010904/DTD/svg10.dtd">
<svg version="1.0" xmlns="http://www.w3.org/2000/svg"
 width="512.000000pt" height="512.000000pt" viewBox="0 0 512.000000 512.000000"
 preserveAspectRatio="xMidYMid meet">

<g transform="translate(0.000000,512.000000) scale(0.100000,-0.100000)"
fill="#000000" stroke="none">
<path d="M2425 4756 c-135 -44 -243 -138 -302 -261 -32 -68 -37 -88 -41 -175
-4 -80 -1 -110 16 -166 36 -118 97 -201 196 -266 161 -105 371 -105 532 0 97
64 159 147 194 261 71 229 -38 474 -257 579 -74 35 -84 37 -188 39 -71 2 -124
-2 -150 -11z m85 -196 l0 -110 -61 0 -62 0 7 49 c3 27 13 72 22 100 14 49 32
64 87 70 4 1 7 -48 7 -109z m157 95 c24 -7 43 -55 62 -157 l8 -48 -63 0 -64 0
0 111 c0 120 -5 112 57 94z m-372 -132 c-12 -68 -15 -73 -46 -73 -16 0 -29 3
-29 8 0 14 66 102 77 102 2 0 1 -17 -2 -37z m559 10 c24 -31 45 -65 46 -75 0
-5 -13 -8 -29 -8 -25 0 -30 4 -35 38 -4 20 -9 45 -12 55 -8 25 5 21 30 -10z
m-584 -238 l0 -55 -45 0 -45 0 0 55 0 55 45 0 45 0 0 -55z m240 0 l0 -55 -70
0 -70 0 0 55 0 55 70 0 70 0 0 -55z m240 0 l0 -55 -70 0 -70 0 0 55 0 55 70 0
70 0 0 -55z m190 0 l0 -55 -45 0 -45 0 0 55 0 55 45 0 45 0 0 -55z m-655 -202
c4 -21 9 -46 12 -57 8 -27 -13 -12 -48 36 -36 51 -36 58 1 58 26 0 30 -4 35
-37z m225 -73 c0 -83 -3 -108 -12 -106 -7 3 -25 7 -40 10 -23 5 -30 15 -43 59
-8 28 -19 73 -24 100 l-8 47 63 0 64 0 0 -110z m227 93 c-3 -10 -13 -50 -22
-88 -20 -89 -24 -95 -69 -105 l-36 -8 0 109 0 109 66 0 c57 0 65 -2 61 -17z
m163 9 c0 -12 -55 -88 -70 -97 -8 -5 -10 -1 -7 11 3 11 9 36 13 57 5 33 10 37
35 37 16 0 29 -4 29 -8z"/>
<path d="M1793 4170 c-64 -30 -82 -54 -64 -89 18 -33 44 -33 113 -2 80 36 96
63 58 101 -25 25 -32 25 -107 -10z"/>
<path d="M3220 4180 c-39 -39 -21 -68 64 -105 62 -27 89 -26 107 6 16 31 -11
63 -77 93 -68 31 -69 31 -94 6z"/>
<path d="M1513 4001 c-95 -69 -109 -93 -77 -125 26 -27 55 -18 138 42 94 68
104 81 88 116 -19 43 -57 34 -149 -33z"/>
<path d="M3458 4036 c-6 -14 -8 -31 -5 -39 8 -22 172 -137 195 -137 21 0 52
24 52 40 0 25 -21 48 -93 101 -91 67 -130 76 -149 35z"/>
<path d="M1314 3832 c-6 -4 -40 -40 -77 -80 -43 -47 -67 -82 -67 -97 0 -28 33
-55 59 -48 26 7 161 160 161 182 0 34 -48 62 -76 43z"/>
<path d="M3746 3824 c-28 -27 -18 -51 56 -133 73 -83 106 -99 136 -69 24 24
11 57 -49 124 -91 102 -110 112 -143 78z"/>
<path d="M1084 3552 c-21 -13 -74 -106 -74 -129 0 -31 42 -58 68 -44 26 14 82
105 82 134 0 39 -43 61 -76 39z"/>
<path d="M3972 3548 c-20 -20 -14 -55 19 -108 39 -64 62 -77 95 -55 13 8 24
25 24 37 0 22 -54 117 -74 130 -17 12 -51 9 -64 -4z"/>
<path d="M2396 3458 c-10 -13 -16 -44 -16 -74 l0 -52 -42 -10 c-24 -6 -80 -29
-124 -51 l-82 -39 -38 39 c-22 22 -48 39 -60 39 -32 0 -224 -196 -224 -230 0
-15 14 -39 37 -62 l37 -38 -28 -58 c-16 -31 -39 -88 -52 -127 l-22 -70 -61 -5
c-40 -3 -65 -10 -71 -20 -5 -8 -10 -81 -10 -161 0 -170 1 -171 88 -179 l55 -5
23 -68 c12 -38 35 -93 50 -122 l26 -53 -20 -30 c-12 -16 -28 -35 -37 -42 -29
-24 -18 -62 38 -118 44 -45 47 -52 22 -39 -16 8 -54 31 -82 50 -149 100 -365
115 -530 36 -89 -42 -913 -769 -913 -805 0 -19 88 -113 387 -414 257 -260 393
-390 406 -390 13 0 64 42 132 110 61 60 129 118 151 127 36 16 96 18 709 23
727 6 693 3 787 64 51 32 826 888 886 977 70 104 89 208 51 287 -32 65 -86 97
-163 97 -111 -1 -159 -39 -621 -495 -226 -222 -335 -324 -372 -343 -90 -48
-160 -57 -458 -57 -237 0 -274 2 -305 18 -64 32 -77 129 -25 189 l23 28 314 5
c340 6 348 7 417 66 69 57 93 182 52 263 l-19 37 66 18 c36 9 95 31 130 47 36
16 68 29 72 29 4 0 26 -18 48 -40 22 -22 48 -40 57 -40 10 0 64 46 121 102
108 106 125 138 89 168 -9 7 -25 26 -36 41 l-20 29 36 75 c19 41 41 98 47 125
l11 50 51 0 c31 0 61 6 74 16 21 14 22 21 22 162 0 81 -5 154 -10 162 -6 10
-31 17 -71 20 l-61 5 -22 70 c-13 39 -36 96 -52 127 l-28 58 37 38 c23 23 37
47 37 62 0 34 -192 230 -224 230 -12 0 -38 -17 -60 -39 l-38 -39 -82 39 c-44
22 -100 45 -123 51 l-43 10 0 52 c0 30 -6 61 -16 74 -14 21 -22 22 -164 22
-142 0 -150 -1 -164 -22z m234 -128 c0 -53 23 -90 58 -90 35 0 179 -57 235
-93 31 -20 64 -37 72 -37 8 0 33 17 56 37 l40 36 52 -51 51 -52 -37 -38 c-20
-21 -37 -45 -37 -54 0 -9 20 -54 45 -100 25 -47 54 -120 65 -163 11 -43 25
-84 31 -91 7 -9 32 -14 65 -14 l54 0 0 -75 0 -75 -39 0 c-74 0 -86 -10 -106
-92 -20 -82 -49 -153 -88 -216 -36 -55 -34 -79 8 -122 l34 -35 -48 -55 -49
-55 -39 38 c-21 20 -46 37 -55 37 -8 0 -51 -18 -94 -40 -118 -60 -215 -82
-359 -83 -162 0 -268 29 -362 99 -43 33 -71 30 -113 -11 l-36 -35 -52 53 -52
53 35 34 c44 43 44 67 1 139 -36 58 -86 194 -86 230 0 38 -35 61 -90 61 l-50
0 0 75 0 75 54 0 c64 0 73 8 92 89 15 67 61 175 93 220 30 42 26 70 -16 113
l-37 38 51 52 52 51 40 -36 c47 -42 62 -45 99 -18 51 36 151 81 224 101 40 11
79 28 86 37 6 9 12 38 12 65 l0 48 70 0 70 0 0 -50z m1140 -1417 c28 -36 22
-94 -17 -166 -16 -28 -208 -250 -443 -511 -342 -379 -424 -465 -465 -486 l-50
-25 -670 -5 c-603 -5 -674 -7 -713 -22 -62 -25 -96 -51 -185 -137 l-78 -76
-327 334 c-180 184 -328 337 -330 341 -6 15 772 691 825 716 140 69 325 52
451 -43 17 -13 62 -38 100 -56 l67 -32 315 -5 c342 -6 358 -8 386 -61 28 -55
13 -124 -35 -156 -23 -16 -62 -19 -336 -24 -262 -4 -316 -8 -347 -22 -164 -75
-173 -315 -15 -400 40 -21 54 -22 338 -25 488 -5 466 -14 864 377 314 309 458
444 519 485 55 37 116 36 146 -1z"/>
<path d="M2450 2955 c-113 -32 -209 -114 -263 -225 -29 -60 -32 -73 -32 -170
0 -97 2 -110 31 -170 46 -95 101 -153 192 -197 67 -34 86 -38 163 -41 64 -3
102 1 141 14 317 104 389 510 128 718 -92 73 -244 103 -360 71z m247 -120 c60
-30 117 -89 147 -154 32 -70 29 -188 -6 -257 -36 -69 -116 -140 -181 -159
-111 -33 -216 -11 -297 62 -154 138 -141 368 27 487 87 61 210 69 310 21z"/>
<path d="M663 3312 c-137 -44 -223 -159 -223 -297 0 -49 -1 -51 -36 -64 -19
-7 -51 -27 -71 -44 -116 -102 -92 -297 46 -369 l53 -28 413 0 413 0 53 28 c71
37 111 100 117 182 5 72 -9 115 -53 168 -19 22 -35 50 -35 61 0 33 -28 93 -58
124 -47 50 -100 71 -172 71 l-66 0 -26 42 c-34 55 -109 109 -179 128 -69 20
-110 19 -176 -2z m137 -93 c71 -16 116 -53 152 -126 39 -80 53 -89 109 -64 92
42 179 -16 179 -118 0 -31 6 -44 28 -63 43 -36 62 -69 62 -108 0 -47 -18 -80
-59 -107 -34 -23 -34 -23 -425 -23 -370 0 -393 1 -423 20 -58 35 -79 110 -49
169 20 37 55 59 108 67 66 10 70 17 62 101 -8 95 10 147 73 202 38 34 74 50
133 60 3 0 25 -4 50 -10z"/>
<path d="M4120 3270 c-10 -6 -17 -32 -20 -77 l-5 -68 -93 -5 c-67 -4 -95 -9
-102 -20 -6 -9 -10 -200 -10 -466 0 -424 1 -452 18 -467 17 -15 59 -17 394
-17 433 0 408 -6 408 93 l0 57 53 0 c31 0 61 6 75 16 l22 15 0 458 c0 431 -1
459 -18 474 -17 15 -56 17 -363 17 -199 0 -350 -4 -359 -10z m640 -480 l0
-380 -25 0 -25 0 0 253 0 252 -103 103 -102 102 -153 0 -152 0 0 25 0 25 280
0 280 0 0 -380z m-222 157 l72 -72 0 -313 0 -312 -307 2 -308 3 -3 383 -2 382
238 0 238 0 72 -73z"/>
<path d="M4062 2748 c-19 -19 -15 -66 7 -78 12 -6 106 -10 235 -10 203 0 217
1 236 20 23 23 24 33 10 61 -10 18 -24 19 -243 19 -168 0 -236 -3 -245 -12z"/>
<path d="M4062 2598 c-7 -7 -12 -24 -12 -38 0 -48 8 -50 252 -50 l228 0 16 25
c15 23 15 27 0 50 l-16 25 -228 0 c-164 0 -231 -3 -240 -12z"/>
</g>
</svg>
